<svg width="145" height="46" viewBox="0 0 145 46" fill="none" xmlns="http://www.w3.org/2000/svg">
<g clip-path="url(#clip0_160_869)">
<path d="M30.6987 17.5242C30.0728 16.8432 29.3085 16.3138 28.4064 15.9358C27.5043 15.5586 26.4637 15.3696 25.2854 15.3696C23.8669 15.3696 22.5922 15.7055 21.4598 16.378C20.3274 17.0506 19.4299 17.9756 18.7666 19.1539C18.104 20.3322 17.7719 21.6773 17.7719 23.1869C17.7719 24.6965 18.094 25.9673 18.739 27.164C19.3833 28.3614 20.2861 29.3094 21.446 30.0087C22.606 30.7088 23.9687 31.0585 25.5341 31.0585C26.5655 31.0585 27.5135 30.9016 28.3788 30.5887C29.2442 30.2757 29.9902 29.8427 30.6161 29.2903C31.2419 28.7378 31.7025 28.1028 31.9971 27.3843L28.9588 25.9207C28.6275 26.4731 28.1807 26.9153 27.6191 27.2466C27.0575 27.5779 26.3803 27.744 25.5892 27.744C24.798 27.744 24.0421 27.555 23.4346 27.1778C22.8271 26.8006 22.3665 26.2711 22.0535 25.5894C21.8714 25.1938 21.7559 24.7615 21.7039 24.2909H32.4661C32.5212 24.0698 32.5625 23.8212 32.5901 23.545C32.6176 23.2687 32.6314 22.9925 32.6314 22.7163C32.6314 21.7041 32.4654 20.7553 32.1341 19.8716C31.8028 18.9879 31.3238 18.2051 30.6979 17.5234L30.6987 17.5242ZM23.3099 19.0024C23.8715 18.6252 24.5295 18.4362 25.2847 18.4362C26.0398 18.4362 26.6933 18.6252 27.2457 19.0024C27.7981 19.3804 28.1891 19.8961 28.4194 20.5495C28.5158 20.8242 28.5755 21.1142 28.5992 21.4194H21.8064C21.8646 21.1394 21.9411 20.8762 22.039 20.6321C22.3244 19.9236 22.7475 19.3804 23.3099 19.0024Z" fill="#FAFAFA"/>
<path d="M79.0928 18.8226C79.4333 18.5647 79.8985 18.4362 80.4876 18.4362C81.2428 18.4362 81.9146 18.6344 82.5037 19.0299C83.0929 19.4263 83.516 19.955 83.7746 20.6183L86.6193 19.2648C86.1587 18.0314 85.3806 17.0735 84.2857 16.3925C83.1901 15.7116 81.9238 15.3703 80.4876 15.3703C79.4012 15.3703 78.434 15.5639 77.5871 15.9503C76.7401 16.3367 76.0767 16.8753 75.5985 17.5662C75.1195 18.2564 74.88 19.0628 74.88 19.9833C74.88 21.033 75.2067 21.9397 75.8609 22.704C76.5143 23.4684 77.4769 24.0346 78.747 24.4026L81.2329 25.0928C81.5642 25.1853 81.8541 25.3001 82.1028 25.4378C82.3515 25.5756 82.5451 25.7324 82.6828 25.9076C82.8213 26.0828 82.8901 26.3078 82.8901 26.584C82.8901 27.0446 82.7103 27.4126 82.3515 27.6888C81.9926 27.965 81.4907 28.1035 80.8465 28.1035C80.0178 28.1035 79.2627 27.8648 78.5817 27.3851C77.9 26.9061 77.3667 26.2619 76.9795 25.4516L74.1624 26.7776C74.6046 28.0852 75.4233 29.1257 76.6207 29.8985C77.8174 30.672 79.2259 31.0584 80.8465 31.0584C82.0064 31.0584 83.0102 30.8649 83.8572 30.4785C84.7042 30.0921 85.3714 29.5534 85.8596 28.8625C86.347 28.1724 86.5918 27.3667 86.5918 26.4455C86.5918 25.3782 86.2605 24.4707 85.5971 23.7247C84.9338 22.9787 83.9766 22.4225 82.7249 22.0537L80.3216 21.3352C79.9719 21.2251 79.6628 21.1049 79.3966 20.9764C79.1295 20.8479 78.9268 20.691 78.7891 20.5066C78.6506 20.323 78.5817 20.1019 78.5817 19.844C78.5817 19.4209 78.7516 19.0804 79.0928 18.8218V18.8226Z" fill="#FAFAFA"/>
<path d="M52.276 15.7016H48.4641V30.7271H52.276V15.7016Z" fill="#FAFAFA"/>
<path d="M36.3668 30.7271H40.1503V19.0437H44.9293V15.7016H36.3668V30.7271Z" fill="#FAFAFA"/>
<path d="M52.3035 9.12766H48.4091V13.0497H52.3035V9.12766Z" fill="#FAFAFA"/>
<path d="M6.37003 19.375C6.96836 19.007 7.64473 18.8226 8.39991 18.8226C9.22854 18.8226 9.96459 19.0483 10.6096 19.499C11.2538 19.9504 11.7144 20.5533 11.9906 21.3085L15.3052 19.8724C14.9915 18.9519 14.4995 18.16 13.8277 17.4966C13.1552 16.834 12.3541 16.3138 11.4244 15.9358C10.4941 15.5586 9.48638 15.3696 8.39991 15.3696C6.88955 15.3696 5.53605 15.7055 4.33939 16.378C3.14197 17.0506 2.20317 17.9802 1.52221 19.1677C0.84048 20.3551 0.5 21.6949 0.5 23.1869C0.5 24.6789 0.845071 26.0178 1.53598 27.2061C2.22689 28.3943 3.16569 29.3331 4.35317 30.0233C5.54064 30.7134 6.88955 31.0592 8.39991 31.0592C9.50475 31.0592 10.5216 30.8657 11.452 30.4793C12.3816 30.0929 13.1827 29.5588 13.8552 28.8771C14.527 28.1961 15.0106 27.4318 15.3052 26.5848L11.9906 25.0936C11.7144 25.8671 11.2584 26.4792 10.6234 26.9306C9.98831 27.382 9.2469 27.607 8.39991 27.607C7.64473 27.607 6.9676 27.4188 6.37003 27.0408C5.77171 26.6636 5.29733 26.1433 4.94767 25.4799C4.59801 24.8174 4.42279 24.0622 4.42279 23.2152C4.42279 22.3682 4.59724 21.5855 4.94767 20.9229C5.29733 20.2603 5.77171 19.7446 6.37003 19.3758V19.375Z" fill="#FAFAFA"/>
<path d="M67.8233 16.378C66.6259 15.7063 65.2823 15.3696 63.7903 15.3696C62.2984 15.3696 60.9732 15.7055 59.7574 16.378C58.5424 17.0506 57.5798 17.9756 56.8713 19.1539C56.1621 20.3322 55.8078 21.6857 55.8078 23.2144C55.8078 24.7431 56.1666 26.0454 56.8851 27.2336C57.6035 28.4211 58.5653 29.3561 59.7711 30.037C60.977 30.7188 62.3167 31.0592 63.7903 31.0592C65.264 31.0592 66.6029 30.7188 67.8095 30.037C69.0154 29.3561 69.9779 28.4257 70.6956 27.2474C71.414 26.0691 71.7729 24.7248 71.7729 23.2144C71.7729 21.7041 71.414 20.333 70.6956 19.1539C69.9771 17.9756 69.02 17.0506 67.8233 16.378ZM67.3122 25.4792C66.971 26.1418 66.4974 26.6628 65.8898 27.04C65.2823 27.418 64.5822 27.6062 63.7903 27.6062C62.9984 27.6062 62.2991 27.418 61.6908 27.04C61.0833 26.6628 60.6044 26.1425 60.2547 25.4792C59.905 24.8166 59.7298 24.0614 59.7298 23.2144C59.7298 22.3674 59.9043 21.5893 60.2547 20.9359C60.6044 20.2825 61.0833 19.7668 61.6908 19.3888C62.2984 19.0116 62.9984 18.8226 63.7903 18.8226C64.5822 18.8226 65.2816 19.0116 65.8898 19.3888C66.4974 19.7668 66.9717 20.2825 67.3122 20.9359C67.6527 21.5901 67.8233 22.3491 67.8233 23.2144C67.8233 24.0798 67.6527 24.8166 67.3122 25.4792Z" fill="#FAFAFA"/>
<path d="M138.408 17.2762L138.585 17.1201C140.524 15.4177 141.189 12.7574 140.279 10.3426C139.369 7.92789 137.114 6.36781 134.534 6.36781H125.267L125.221 6.1398C124.716 3.60953 122.745 1.70361 120.199 1.28432C117.654 0.865032 115.175 2.03797 113.885 4.27213L109.253 12.2945L109.033 12.2195C106.589 11.3916 103.952 12.146 102.317 14.1415C100.681 16.1369 100.457 18.8692 101.747 21.1041L106.378 29.1264L106.203 29.2802C104.264 30.9826 103.599 33.643 104.509 36.0577C105.418 38.4724 107.673 40.0325 110.254 40.0325H119.517L119.563 40.2605C120.068 42.7908 122.04 44.6967 124.586 45.116C124.928 45.1726 125.27 45.2002 125.609 45.2002C127.778 45.2002 129.785 44.0616 130.901 42.1282L135.529 34.1127L135.759 34.1908C136.417 34.4134 137.089 34.5221 137.753 34.5221C139.551 34.5221 141.28 33.7263 142.475 32.2688C144.111 30.2733 144.335 27.5411 143.044 25.3062L138.408 17.2769L138.408 17.2762ZM134.534 9.65784C135.987 9.65784 136.864 10.6104 137.2 11.5026C137.536 12.3947 137.506 13.6885 136.414 14.648L135.691 15.283H129.5C128.075 15.283 126.837 14.2685 126.558 12.8706L125.917 9.6586H134.534L134.534 9.65784ZM116.733 5.91715C117.46 4.65852 118.723 4.37542 119.664 4.53074C120.604 4.6853 121.71 5.35861 121.994 6.78403L122.182 7.72743L119.087 13.0894C118.374 14.3243 116.876 14.8882 115.526 14.4307L112.423 13.3802L116.732 5.91715H116.733ZM104.595 19.4591C103.868 18.2005 104.255 16.9648 104.86 16.228C105.319 15.6679 106.086 15.1751 107.031 15.1751C107.329 15.1751 107.646 15.2241 107.976 15.3366L108.888 15.6449L111.983 21.0069C112.696 22.2418 112.436 23.8203 111.365 24.7614L108.904 26.9229L104.595 19.4591ZM110.254 36.7417C108.8 36.7417 107.923 35.7891 107.588 34.897C107.252 34.0049 107.282 32.711 108.373 31.7516L109.096 31.1165H115.288C116.713 31.1165 117.95 32.1311 118.23 33.5289L118.871 36.7409H110.253L110.254 36.7417ZM121.456 32.8855C120.871 29.9543 118.277 27.8265 115.288 27.8265H112.859L113.536 27.232C115.782 25.2595 116.328 21.9496 114.833 19.3604L113.619 17.2571L114.472 17.5463C115.132 17.7697 115.809 17.8768 116.478 17.8768C118.678 17.8768 120.791 16.7184 121.937 14.7337L123.155 12.625L123.332 13.5133C123.918 16.4445 126.511 18.5723 129.501 18.5723H131.941L131.254 19.1767C129.008 21.1492 128.462 24.4592 129.957 27.0483L131.166 29.1417L130.313 28.8525C127.482 27.8938 124.342 29.0767 122.847 31.6651L121.633 33.7684L121.456 32.8855ZM128.05 40.4824C127.323 41.741 126.06 42.0241 125.12 41.8688C124.179 41.7142 123.073 41.0409 122.789 39.6155L122.601 38.6721L125.697 33.3101C126.41 32.0752 127.907 31.5113 129.257 31.9689L132.36 33.0194L128.052 40.4824H128.05ZM139.929 30.1815C139.325 30.9183 138.189 31.5396 136.812 31.0737L135.901 30.7653L132.805 25.4033C132.092 24.1684 132.352 22.59 133.424 21.6489L135.885 19.4874L140.193 26.9504C140.92 28.209 140.534 29.4447 139.929 30.1815Z" fill="#FAFAFA"/>
</g>
<defs>
<clipPath id="clip0_160_869">
<rect width="144.001" height="45" fill="white" transform="translate(0.5 0.700073)"/>
</clipPath>
</defs>
</svg>
